<svg width="40" height="40" viewBox="0 0 64 64" fill="none" xmlns="http://www.w3.org/2000/svg" role="img" aria-label="Peermitly logo">
    <defs>
        <linearGradient id="logo-chip" x1="12" y1="10" x2="52" y2="54" gradientUnits="userSpaceOnUse">
            <stop offset="0" stop-color="#86efac" />
            <stop offset="0.5" stop-color="#22c55e" />
            <stop offset="1" stop-color="#15803d" />
        </linearGradient>
        <linearGradient id="logo-ghost" x1="22" y1="20" x2="42" y2="46" gradientUnits="userSpaceOnUse">
            <stop offset="0" stop-color="#f0fdf4" />
            <stop offset="1" stop-color="#bbf7d0" />
        </linearGradient>
        <radialGradient id="logo-glow" cx="32" cy="32" r="26" gradientUnits="userSpaceOnUse">
            <stop offset="0" stop-color="#22c55e" stop-opacity="0.45" />
            <stop offset="1" stop-color="#22c55e" stop-opacity="0" />
        </radialGradient>
    </defs>

    <circle cx="32" cy="32" r="26" fill="url(#logo-glow)" />

    <g fill="url(#logo-chip)">
        <rect x="22" y="6" width="3.5" height="7" rx="1.2" />
        <rect x="30.25" y="6" width="3.5" height="7" rx="1.2" />
        <rect x="38.5" y="6" width="3.5" height="7" rx="1.2" />
        <rect x="22" y="51" width="3.5" height="7" rx="1.2" />
        <rect x="30.25" y="51" width="3.5" height="7" rx="1.2" />
        <rect x="38.5" y="51" width="3.5" height="7" rx="1.2" />
        <rect x="6" y="22" width="7" height="3.5" rx="1.2" />
        <rect x="6" y="30.25" width="7" height="3.5" rx="1.2" />
        <rect x="6" y="38.5" width="7" height="3.5" rx="1.2" />
        <rect x="51" y="22" width="7" height="3.5" rx="1.2" />
        <rect x="51" y="30.25" width="7" height="3.5" rx="1.2" />
        <rect x="51" y="38.5" width="7" height="3.5" rx="1.2" />
    </g>

    <rect x="11" y="11" width="42" height="42" rx="9" fill="#1c1917" />
    <rect x="11" y="11" width="42" height="42" rx="9" fill="none" stroke="url(#logo-chip)" stroke-width="2.5" />

    <g fill="#22c55e" opacity="0.55">
        <circle cx="17.5" cy="17.5" r="1.4" />
        <circle cx="46.5" cy="17.5" r="1.4" />
        <circle cx="17.5" cy="46.5" r="1.4" />
        <circle cx="46.5" cy="46.5" r="1.4" />
    </g>

    <path d="M23 41V29c0-5 4-9 9-9s9 4 9 9v12l-3.6-3.4L33.8 41 32 38.6 30.2 41l-3.6-3.4z" fill="url(#logo-ghost)" />
    <g fill="#1c1917">
        <circle cx="28.5" cy="29.5" r="1.9" />
        <circle cx="35.5" cy="29.5" r="1.9" />
    </g>
</svg>
